<svg width="51" height="50" viewBox="0 0 51 50" fill="none" xmlns="http://www.w3.org/2000/svg">
<g clip-path="url(#clip0_134_193)">
<path d="M36.6667 28.6667C35.7333 28.6667 34.85 28.85 34.0167 29.1333L29.1 19.5H23.3333V22H27.5667L29.0333 24.8667L25 33.8833L22.05 26.9167C22.5 26.75 22.9 26.3 22.9 25.75C22.9 25.0667 22.35 24.5 21.6667 24.5H18.3333C17.6333 24.5 17.0667 25.0667 17.0667 25.75C17.0667 26.4333 17.6333 27 18.3333 27H19.35L23.1 35.75H21.5333C20.9333 31.75 17.5 28.6667 13.3333 28.6667C8.73333 28.6667 5 32.4 5 37C5 41.6 8.73333 45.3333 13.3333 45.3333C17.5 45.3333 20.9333 42.25 21.5333 38.25H25.8333L30.4833 27.7167L31.8 30.2667C30.7294 31.0335 29.8567 32.0441 29.2539 33.2149C28.6511 34.3857 28.3356 35.6831 28.3333 37C28.3333 41.6 32.0667 45.3333 36.6667 45.3333C41.2667 45.3333 45 41.6 45 37C45 32.4 41.2667 28.6667 36.6667 28.6667ZM13.3333 42.8333C10.1167 42.8333 7.5 40.2167 7.5 37C7.5 33.7833 10.1167 31.1667 13.3333 31.1667C16.1167 31.1667 18.45 33.1333 19.0167 35.75H11.6667V38.25H19.0167C18.7336 39.5473 18.0158 40.709 16.9822 41.5426C15.9486 42.3762 14.6612 42.8316 13.3333 42.8333ZM36.6667 42.8333C33.45 42.8333 30.8333 40.2167 30.8333 37C30.8333 35.2 31.6667 33.6167 32.95 32.55L35.95 38.4167L38.15 37.2167L35.1667 31.3833C35.65 31.2667 36.15 31.1667 36.6667 31.1667C39.8833 31.1667 42.5 33.7833 42.5 37C42.5 40.2167 39.8833 42.8333 36.6667 42.8333Z" fill="black"/>
</g>
<defs>
<clipPath id="clip0_134_193">
<rect width="51" height="50" fill="white"/>
</clipPath>
</defs>
</svg>
