<svg width="39" height="24" viewBox="0 0 39 24" fill="none" xmlns="http://www.w3.org/2000/svg">
<path d="M7.00051 9.45161C6.97051 8.07161 5.83051 6.95161 4.45051 7.00161C4.12219 7.00811 3.79836 7.07923 3.49753 7.21091C3.1967 7.34259 2.92475 7.53225 2.69724 7.76906C2.46972 8.00586 2.29109 8.28517 2.17154 8.59102C2.052 8.89688 1.99388 9.22329 2.00051 9.55161C2.01357 10.1188 2.2184 10.6648 2.58161 11.1007C2.94482 11.5365 3.44497 11.8365 4.00051 11.9516V19.9516H5.00051V11.9516C6.18051 11.7116 7.00051 10.6616 7.00051 9.45161Z" fill="black"/>
<path d="M9 15.3684V7.36843C9 6.62457 9.18633 6.03144 9.559 5.58906C9.93167 5.14667 10.4224 4.80983 11.0313 4.57853C11.6401 4.34723 12.3342 4.19285 13.1137 4.11537C13.8931 4.0379 14.6886 3.99944 15.5 4.00001C16.3937 4.00001 17.2369 4.03874 18.0293 4.11622C18.8218 4.19369 19.5124 4.34808 20.1012 4.57937C20.69 4.81067 21.1536 5.14751 21.4922 5.5899C21.8307 6.03229 22 6.62513 22 7.36843V15.3684C22 16.1965 21.7259 16.8949 21.1777 17.4636C20.6296 18.0323 19.9557 18.3164 19.1562 18.3158L20.375 19.5789V20H18.75L17.125 18.3158H13.875L12.25 20H10.625V19.5789L11.8438 18.3158C11.0448 18.3158 10.371 18.0317 9.82225 17.4636C9.27354 16.8954 8.99946 16.1971 9 15.3684ZM10.625 10.7368H14.6875V8.21053H10.625V10.7368ZM16.3125 10.7368H20.375V8.21053H16.3125V10.7368ZM13.5297 15.4316C13.7599 15.193 13.875 14.8912 13.875 14.5263C13.875 14.1614 13.7599 13.8597 13.5297 13.6211C13.2995 13.3825 13.0083 13.2632 12.6563 13.2632C12.3042 13.2632 12.013 13.3825 11.7828 13.6211C11.5526 13.8597 11.4375 14.1614 11.4375 14.5263C11.4375 14.8912 11.5526 15.193 11.7828 15.4316C12.013 15.6702 12.3042 15.7895 12.6563 15.7895C13.0083 15.7895 13.2995 15.6702 13.5297 15.4316ZM19.2172 15.4316C19.4474 15.193 19.5625 14.8912 19.5625 14.5263C19.5625 14.1614 19.4474 13.8597 19.2172 13.6211C18.987 13.3825 18.6958 13.2632 18.3437 13.2632C17.9917 13.2632 17.7005 13.3825 17.4703 13.6211C17.2401 13.8597 17.125 14.1614 17.125 14.5263C17.125 14.8912 17.2401 15.193 17.4703 15.4316C17.7005 15.6702 17.9917 15.7895 18.3437 15.7895C18.6958 15.7895 18.987 15.6702 19.2172 15.4316Z" fill="black"/>
<path d="M37 7V16C37 16.71 36.62 17.36 36 17.72V19.25C36 19.66 35.66 20 35.25 20H34.75C34.34 20 34 19.66 34 19.25V18H27V19.25C27 19.66 26.66 20 26.25 20H25.75C25.34 20 25 19.66 25 19.25V17.72C24.39 17.36 24 16.71 24 16V7C24 4 27 4 30.5 4C34 4 37 4 37 7ZM28 15C28 14.45 27.55 14 27 14C26.45 14 26 14.45 26 15C26 15.55 26.45 16 27 16C27.55 16 28 15.55 28 15ZM35 15C35 14.45 34.55 14 34 14C33.45 14 33 14.45 33 15C33 15.55 33.45 16 34 16C34.55 16 35 15.55 35 15ZM35 7H26V11H35V7Z" fill="black"/>
</svg>
