<svg width="18" height="13" viewBox="0 0 18 13" fill="none" xmlns="http://www.w3.org/2000/svg">
<path d="M0.691467 12.4865C1.04595 12.8186 1.51419 13.0024 1.99997 13H16C17.1045 13 18 12.1045 18 10.75V6.5H8.74996L0.691467 12.4865Z" fill="#D7141A"/>
<path d="M16 7.02194e-08H2C1.51226 -0.000129431 1.04146 0.178868 0.677002 0.502998L8.74999 6.49997H18V1.99999C18 1.46956 17.7893 0.960855 17.4142 0.585784C17.0391 0.210713 16.5304 7.02194e-08 16 7.02194e-08Z" fill="#EEEEEE"/>
<path d="M0.691499 12.4865L8.74999 6.50003L0.676999 0.503052C0.464588 0.690411 0.294394 0.920751 0.177684 1.17882C0.0609739 1.43689 0.000409584 1.71681 0 2.00005L0 10.75C0 11.49 0.2685 12.0915 0.691499 12.4865Z" fill="#11457E"/>
</svg>
