<svg width="65" height="46" viewBox="0 0 65 46" fill="none" xmlns="http://www.w3.org/2000/svg">
<g clip-path="url(#clip0_138_235)">
<path d="M41.5833 22.8333C40.4167 22.8333 39.3125 23.0625 38.2708 23.4167L32.125 11.375H24.9167V14.5H30.2083L32.0417 18.0833L27 29.3542L23.3125 20.6458C23.875 20.4375 24.375 19.875 24.375 19.1875C24.375 18.3333 23.6875 17.625 22.8333 17.625H18.6667C17.7917 17.625 17.0833 18.3333 17.0833 19.1875C17.0833 20.0417 17.7917 20.75 18.6667 20.75H19.9375L24.625 31.6875H22.6667C21.9167 26.6875 17.625 22.8333 12.4167 22.8333C6.66667 22.8333 2 27.5 2 33.25C2 39 6.66667 43.6667 12.4167 43.6667C17.625 43.6667 21.9167 39.8125 22.6667 34.8125H28.0417L33.8542 21.6458L35.5 24.8333C34.1618 25.7919 33.0709 27.0551 32.3174 28.5186C31.5639 29.9821 31.1695 31.6039 31.1667 33.25C31.1667 39 35.8333 43.6667 41.5833 43.6667C47.3333 43.6667 52 39 52 33.25C52 27.5 47.3333 22.8333 41.5833 22.8333ZM12.4167 40.5417C8.39583 40.5417 5.125 37.2708 5.125 33.25C5.125 29.2292 8.39583 25.9583 12.4167 25.9583C15.8958 25.9583 18.8125 28.4167 19.5208 31.6875H10.3333V34.8125H19.5208C19.167 36.4342 18.2698 37.8863 16.9777 38.9282C15.6857 39.9702 14.0765 40.5394 12.4167 40.5417ZM41.5833 40.5417C37.5625 40.5417 34.2917 37.2708 34.2917 33.25C34.2917 31 35.3333 29.0208 36.9375 27.6875L40.6875 35.0208L43.4375 33.5208L39.7083 26.2292C40.3125 26.0833 40.9375 25.9583 41.5833 25.9583C45.6042 25.9583 48.875 29.2292 48.875 33.25C48.875 37.2708 45.6042 40.5417 41.5833 40.5417Z" fill="black"/>
<path fill-rule="evenodd" clip-rule="evenodd" d="M46 8C46 5.238 48.238 3 51 3C53.762 3 56 5.238 56 8V11H56.4C57.28 11 58 11.72 58 12.6V19.6C58 20.92 56.92 22 55.6 22H46.4C45.08 22 44 20.92 44 19.6V12.6C44 11.72 44.72 11 45.6 11H46V8ZM54 8V11H48V8C48 6.342 49.342 5 51 5C52.658 5 54 6.342 54 8ZM51 13.25C50.6023 13.2496 50.2164 13.3846 49.9057 13.6329C49.5951 13.8811 49.3782 14.2278 49.2909 14.6157C49.2036 15.0037 49.251 15.4098 49.4253 15.7672C49.5996 16.1246 49.8905 16.412 50.25 16.582V19C50.25 19.1989 50.329 19.3897 50.4697 19.5303C50.6103 19.671 50.8011 19.75 51 19.75C51.1989 19.75 51.3897 19.671 51.5303 19.5303C51.671 19.3897 51.75 19.1989 51.75 19V16.582C52.1095 16.412 52.4004 16.1246 52.5747 15.7672C52.749 15.4098 52.7964 15.0037 52.7091 14.6157C52.6218 14.2278 52.4049 13.8811 52.0943 13.6329C51.7836 13.3846 51.3977 13.2496 51 13.25Z" fill="black"/>
</g>
<defs>
<clipPath id="clip0_138_235">
<rect width="65" height="46" fill="white"/>
</clipPath>
</defs>
</svg>
