<svg width="51" height="50" viewBox="0 0 51 50" fill="none" xmlns="http://www.w3.org/2000/svg">
<path d="M23.8958 33.7292L21.526 44.375C21.4531 44.7153 21.2767 44.9948 20.9967 45.2135C20.7167 45.4323 20.3949 45.5417 20.0313 45.5417C19.5451 45.5417 19.1562 45.3594 18.8646 44.9948C18.5729 44.6302 18.4757 44.217 18.5729 43.7552L22.2917 24.9792L19.6667 26V29.5C19.6667 29.9132 19.5267 30.2598 19.2467 30.5398C18.9667 30.8198 18.6206 30.9593 18.2083 30.9583C17.7961 30.9574 17.45 30.8174 17.17 30.5383C16.89 30.2593 16.75 29.9132 16.75 29.5V25.0521C16.75 24.7604 16.8292 24.4994 16.9877 24.269C17.1462 24.0385 17.3586 23.8621 17.625 23.7396L24.1146 20.9688C24.4549 20.8229 24.8136 20.7379 25.1908 20.7135C25.5681 20.6892 25.9263 20.7378 26.2656 20.8594C26.6049 20.9809 26.9272 21.151 27.2325 21.3698C27.5378 21.5885 27.7867 21.8681 27.9792 22.2083L29.4375 24.5417C29.7535 25.0278 30.1244 25.4896 30.5502 25.9271C30.976 26.3646 31.4558 26.7413 31.9896 27.0573C32.3299 27.2517 32.7066 27.4282 33.1198 27.5867C33.533 27.7451 33.9462 27.8604 34.3594 27.9323C34.7483 28.0052 35.0706 28.1817 35.3263 28.4617C35.5819 28.7417 35.7093 29.0878 35.7083 29.5C35.7074 29.9122 35.5615 30.2525 35.2708 30.5208C34.9801 30.7892 34.6277 30.8985 34.2135 30.849C32.8524 30.6545 31.6308 30.2292 30.5488 29.5729C29.4667 28.9167 28.5251 28.1267 27.724 27.2031L26.8125 31.6875L29.4375 34.1667C29.5833 34.3125 29.6927 34.4768 29.7656 34.6596C29.8385 34.8424 29.875 35.0305 29.875 35.224V44.0833C29.875 44.4965 29.735 44.8431 29.455 45.1231C29.175 45.4031 28.8289 45.5426 28.4167 45.5417C28.0044 45.5407 27.6583 45.4007 27.3783 45.1217C27.0983 44.8426 26.9583 44.4965 26.9583 44.0833V36.0625L23.8958 33.7292ZM25.6283 19.1648C25.0567 18.5931 24.7708 17.9063 24.7708 17.1042C24.7708 16.3021 25.0567 15.6157 25.6283 15.045C26.2 14.4743 26.8864 14.1885 27.6875 14.1875C28.4886 14.1865 29.1755 14.4724 29.7481 15.045C30.3208 15.6176 30.6061 16.304 30.6042 17.1042C30.6022 17.9043 30.3169 18.5912 29.7481 19.1648C29.1794 19.7384 28.4925 20.0238 27.6875 20.0208C26.8825 20.0179 26.1961 19.7326 25.6283 19.1648Z" fill="black"/>
</svg>
