<svg width="18" height="13" viewBox="0 0 18 13" fill="none" xmlns="http://www.w3.org/2000/svg">
<path fill-rule="evenodd" clip-rule="evenodd" d="M2 0C0.89543 0 0 0.895431 0 2V11C0 12.1046 0.895431 13 2 13H16C17.1046 13 18 12.1046 18 11V2C18 0.89543 17.1046 0 16 0H2Z" fill="#2E42A5"/>
<mask id="mask0_380_237" style="mask-type:luminance" maskUnits="userSpaceOnUse" x="0" y="0" width="18" height="13">
<path fill-rule="evenodd" clip-rule="evenodd" d="M2 0C0.89543 0 0 0.895431 0 2V11C0 12.1046 0.895431 13 2 13H16C17.1046 13 18 12.1046 18 11V2C18 0.89543 17.1046 0 16 0H2Z" fill="white"/>
</mask>
<g mask="url(#mask0_380_237)">
<path d="M0.564965 10.1041C-0.572307 10.9748 -0.334135 12.7514 0.992308 13.2918C1.59104 13.5358 2.27363 13.4501 2.79345 13.0656L17.9494 1.85789C18.0429 1.78875 18.1286 1.70966 18.205 1.622C19.0476 0.654968 18.4706 -0.860942 17.1982 -1.02285L16.7143 -1.08442C16.221 -1.14719 15.7231 -1.01027 15.3312 -0.704121L9.36341 3.95846L4.06691 7.42296L0.564965 10.1041Z" fill="white"/>
<path d="M-0.187308 12.208C-0.769666 12.6617 -0.665724 13.5708 0.00400879 13.8813C0.342594 14.0383 0.74078 13.9908 1.03292 13.7585L17.4484 0.70818C18.1029 0.187846 17.735 -0.866211 16.8989 -0.866211C16.7022 -0.866211 16.5112 -0.800596 16.3561 -0.679763L-0.187308 12.208Z" fill="#F50100"/>
<path d="M17.4347 10.1038C18.5721 10.9746 18.3339 12.7514 17.0072 13.2919C16.4084 13.5358 15.7258 13.45 15.206 13.0656L0.0510841 1.85781C-0.0423292 1.78873 -0.12796 1.7097 -0.2043 1.62212C-1.04718 0.655117 -0.470177 -0.860992 0.802345 -1.02291L1.28579 -1.08443C1.77903 -1.14719 2.27689 -1.0103 2.6687 -0.704184L8.63661 3.95846L13.9331 7.42296L17.4347 10.1038Z" fill="white"/>
<path d="M18.6031 11.8849C19.183 12.3419 19.0767 13.25 18.4069 13.5606C18.0663 13.7186 17.6656 13.6702 17.3723 13.4358L10.1172 7.63579C9.91761 7.47627 9.68936 7.35645 9.44473 7.28282L7.76902 6.77847C7.54626 6.71142 7.33691 6.60602 7.15037 6.46702L-0.329517 0.89301C-0.984212 0.405132 -0.639158 -0.635376 0.177329 -0.635376C0.356733 -0.635376 0.531518 -0.578493 0.676559 -0.472904L10.0071 6.31966C10.1747 6.44167 10.3602 6.53688 10.5571 6.60189L12.5308 7.25361C12.7518 7.32661 12.9585 7.43767 13.1414 7.58176L18.6031 11.8849Z" fill="#F50100"/>
<path fill-rule="evenodd" clip-rule="evenodd" d="M11.1251 0.916625C11.1251 -0.187945 10.2297 -1.08337 9.12514 -1.08337H8.87488C7.77032 -1.08337 6.87489 -0.187944 6.87489 0.916626V2.33329C6.87489 3.43786 5.97945 4.33329 4.87489 4.33329H0.890199C-0.21437 4.33329 -1.1098 5.22872 -1.1098 6.33329V6.66663C-1.1098 7.7712 -0.214372 8.66663 0.890198 8.66663H4.87488C5.97945 8.66663 6.87489 9.56206 6.87489 10.6666V12.0833C6.87489 13.1879 7.77032 14.0833 8.87488 14.0833H9.12514C10.2297 14.0833 11.1251 13.1879 11.1251 12.0833V10.6666C11.1251 9.56206 12.0206 8.66663 13.1251 8.66663H17.1408C18.2453 8.66663 19.1408 7.7712 19.1408 6.66663V6.33329C19.1408 5.22872 18.2453 4.33329 17.1408 4.33329H13.1251C12.0206 4.33329 11.1251 3.43786 11.1251 2.33329V0.916625Z" fill="#F50100"/>
<mask id="mask1_380_237" style="mask-type:luminance" maskUnits="userSpaceOnUse" x="-2" y="-2" width="22" height="17">
<path fill-rule="evenodd" clip-rule="evenodd" d="M11.1251 0.916625C11.1251 -0.187945 10.2297 -1.08337 9.12514 -1.08337H8.87488C7.77032 -1.08337 6.87489 -0.187944 6.87489 0.916626V2.33329C6.87489 3.43786 5.97945 4.33329 4.87489 4.33329H0.890199C-0.21437 4.33329 -1.1098 5.22872 -1.1098 6.33329V6.66663C-1.1098 7.7712 -0.214372 8.66663 0.890198 8.66663H4.87488C5.97945 8.66663 6.87489 9.56206 6.87489 10.6666V12.0833C6.87489 13.1879 7.77032 14.0833 8.87488 14.0833H9.12514C10.2297 14.0833 11.1251 13.1879 11.1251 12.0833V10.6666C11.1251 9.56206 12.0206 8.66663 13.1251 8.66663H17.1408C18.2453 8.66663 19.1408 7.7712 19.1408 6.66663V6.33329C19.1408 5.22872 18.2453 4.33329 17.1408 4.33329H13.1251C12.0206 4.33329 11.1251 3.43786 11.1251 2.33329V0.916625Z" fill="white"/>
</mask>
<g mask="url(#mask1_380_237)">
<path d="M5.79155 -1.08341C6.38986 -1.08341 6.87489 -1.56844 6.87489 -2.16675H6.83322C6.23491 -2.16675 5.74989 -1.68172 5.74989 -1.08341H5.79155ZM11.1251 -2.16675C11.1251 -1.56844 11.6102 -1.08341 12.2085 -1.08341H12.2501C12.2501 -1.68172 11.7651 -2.16675 11.1668 -2.16675H11.1251ZM7.95822 4.33325C7.35991 4.33325 6.87489 4.81828 6.87489 5.41659H6.91655C7.51486 5.41659 7.99989 4.93156 7.99989 4.33325H7.95822ZM-2.19314 4.33325C-1.59483 4.33325 -1.1098 3.84823 -1.1098 3.24992H-1.15147C-1.74978 3.24992 -2.2348 3.73494 -2.2348 4.33325H-2.19314ZM-1.1098 9.74992C-1.1098 9.15161 -1.59483 8.66659 -2.19314 8.66659H-2.2348C-2.2348 9.26489 -1.74978 9.74992 -1.15147 9.74992H-1.1098ZM6.87489 7.58325C6.87489 8.18156 7.35991 8.66659 7.95822 8.66659H7.99989C7.99989 8.06828 7.51486 7.58325 6.91655 7.58325H6.87489ZM6.87489 15.1666C6.87489 14.5683 6.38986 14.0833 5.79155 14.0833H5.74989C5.74989 14.6816 6.23491 15.1666 6.83322 15.1666H6.87489ZM12.2085 14.0833C11.6102 14.0833 11.1251 14.5683 11.1251 15.1666H11.1668C11.7651 15.1666 12.2501 14.6816 12.2501 14.0833H12.2085ZM10.0418 8.66659C10.6401 8.66659 11.1251 8.18156 11.1251 7.58325H11.0835C10.4852 7.58325 10.0001 8.06828 10.0001 8.66659H10.0418ZM20.2241 8.66659C19.6258 8.66659 19.1408 9.15161 19.1408 9.74992H19.1824C19.7807 9.74992 20.2658 9.26489 20.2658 8.66659H20.2241ZM19.1408 3.24992C19.1408 3.84823 19.6258 4.33325 20.2241 4.33325H20.2658C20.2658 3.73494 19.7807 3.24992 19.1824 3.24992H19.1408ZM11.1251 5.41659C11.1251 4.81828 10.6401 4.33325 10.0418 4.33325H10.0001C10.0001 4.93156 10.4852 5.41659 11.0835 5.41659H11.1251ZM6.87489 -2.00008C6.87489 -0.895512 7.77032 -8.13007e-05 8.87488 -8.13007e-05H9.12514C10.2297 -8.13007e-05 11.1251 -0.895511 11.1251 -2.00008V-2.16675H6.87489V-2.00008ZM7.99989 4.33325V0.916584C7.99989 -0.187985 7.10445 -1.08341 5.99989 -1.08341H5.74989V2.33325C5.74989 3.43782 6.64532 4.33325 7.74989 4.33325H7.99989ZM-1.1098 3.41659C-1.1098 4.52116 -0.214372 5.41659 0.890198 5.41659H6.87489V5.24992C6.87489 4.14535 5.97945 3.24992 4.87489 3.24992H-1.1098V3.41659ZM-1.9848 8.66659C-0.880233 8.66659 0.0151978 7.77115 0.0151978 6.66659V6.33325C0.0151978 5.22868 -0.880233 4.33325 -1.9848 4.33325H-2.2348V8.66659H-1.9848ZM6.87489 7.58325H0.890199C-0.21437 7.58325 -1.1098 8.47868 -1.1098 9.58325V9.74992H4.87488C5.97945 9.74992 6.87489 8.85449 6.87489 7.74992V7.58325ZM5.99989 14.0833C7.10445 14.0833 7.99989 13.1878 7.99989 12.0833V8.66659H7.74989C6.64532 8.66659 5.74989 9.56202 5.74989 10.6666V14.0833H5.99989ZM11.1251 14.9999C11.1251 13.8953 10.2297 12.9999 9.12514 12.9999H8.87488C7.77032 12.9999 6.87489 13.8953 6.87489 14.9999V15.1666H11.1251V14.9999ZM10.0001 8.66659V12.0833C10.0001 13.1878 10.8956 14.0833 12.0001 14.0833H12.2501V10.6666C12.2501 9.56202 11.3547 8.66659 10.2501 8.66659H10.0001ZM19.1408 9.58325C19.1408 8.47868 18.2453 7.58325 17.1408 7.58325H11.1251V7.74992C11.1251 8.85449 12.0206 9.74992 13.1251 9.74992H19.1408V9.58325ZM20.0158 4.33325C18.9112 4.33325 18.0158 5.22868 18.0158 6.33325V6.66659C18.0158 7.77116 18.9112 8.66659 20.0158 8.66659H20.2658V4.33325H20.0158ZM11.1251 5.41659H17.1408C18.2453 5.41659 19.1408 4.52116 19.1408 3.41659V3.24992H13.1251C12.0206 3.24992 11.1251 4.14535 11.1251 5.24992V5.41659ZM12.0001 -1.08341C10.8956 -1.08341 10.0001 -0.187984 10.0001 0.916585V4.33325H10.2501C11.3547 4.33325 12.2501 3.43782 12.2501 2.33325V-1.08341H12.0001Z" fill="white"/>
</g>
</g>
</svg>
