<svg width="65" height="46" viewBox="0 0 65 46" fill="none" xmlns="http://www.w3.org/2000/svg">
<g clip-path="url(#clip0_138_236)">
<path d="M41.5833 22.8333C40.4167 22.8333 39.3125 23.0625 38.2708 23.4167L32.125 11.375H24.9167V14.5H30.2083L32.0417 18.0833L27 29.3542L23.3125 20.6458C23.875 20.4375 24.375 19.875 24.375 19.1875C24.375 18.3333 23.6875 17.625 22.8333 17.625H18.6667C17.7917 17.625 17.0833 18.3333 17.0833 19.1875C17.0833 20.0417 17.7917 20.75 18.6667 20.75H19.9375L24.625 31.6875H22.6667C21.9167 26.6875 17.625 22.8333 12.4167 22.8333C6.66667 22.8333 2 27.5 2 33.25C2 39 6.66667 43.6667 12.4167 43.6667C17.625 43.6667 21.9167 39.8125 22.6667 34.8125H28.0417L33.8542 21.6458L35.5 24.8333C34.1618 25.7919 33.0709 27.0551 32.3174 28.5186C31.5639 29.9821 31.1695 31.6039 31.1667 33.25C31.1667 39 35.8333 43.6667 41.5833 43.6667C47.3333 43.6667 52 39 52 33.25C52 27.5 47.3333 22.8333 41.5833 22.8333ZM12.4167 40.5417C8.39583 40.5417 5.125 37.2708 5.125 33.25C5.125 29.2292 8.39583 25.9583 12.4167 25.9583C15.8958 25.9583 18.8125 28.4167 19.5208 31.6875H10.3333V34.8125H19.5208C19.167 36.4342 18.2698 37.8863 16.9777 38.9282C15.6857 39.9702 14.0765 40.5394 12.4167 40.5417ZM41.5833 40.5417C37.5625 40.5417 34.2917 37.2708 34.2917 33.25C34.2917 31 35.3333 29.0208 36.9375 27.6875L40.6875 35.0208L43.4375 33.5208L39.7083 26.2292C40.3125 26.0833 40.9375 25.9583 41.5833 25.9583C45.6042 25.9583 48.875 29.2292 48.875 33.25C48.875 37.2708 45.6042 40.5417 41.5833 40.5417Z" fill="black"/>
<path fill-rule="evenodd" clip-rule="evenodd" d="M46 7.99995C45.9983 6.78178 46.4414 5.60489 47.2461 4.69031C48.0507 3.77573 49.1616 3.18636 50.3701 3.03289C51.5786 2.87942 52.8015 3.17241 53.8092 3.85683C54.8169 4.54126 55.5401 5.57003 55.843 6.74995C55.9093 7.00681 55.8709 7.27949 55.7361 7.50801C55.6014 7.73652 55.3814 7.90215 55.1245 7.96845C54.8676 8.03476 54.595 7.99631 54.3664 7.86156C54.1379 7.72682 53.9723 7.50681 53.906 7.24995C53.7244 6.54181 53.2906 5.92434 52.6859 5.51353C52.0812 5.10271 51.3473 4.92683 50.6221 5.01893C49.8968 5.11102 49.2302 5.46476 48.7474 6.01367C48.2646 6.56259 47.9988 7.26891 48 7.99995V11H56.4C57.28 11 58 11.72 58 12.6V19.6C58 20.92 56.92 22 55.6 22H46.4C45.08 22 44 20.92 44 19.6V12.6C44 11.72 44.72 11 45.6 11H46V7.99995ZM51 13.25C50.6023 13.2495 50.2164 13.3846 49.9057 13.6328C49.5951 13.8811 49.3782 14.2277 49.2909 14.6157C49.2036 15.0036 49.251 15.4097 49.4253 15.7672C49.5996 16.1246 49.8905 16.4119 50.25 16.582V19C50.25 19.1989 50.329 19.3896 50.4697 19.5303C50.6103 19.6709 50.8011 19.75 51 19.75C51.1989 19.75 51.3897 19.6709 51.5303 19.5303C51.671 19.3896 51.75 19.1989 51.75 19V16.582C52.1095 16.4119 52.4004 16.1246 52.5747 15.7672C52.749 15.4097 52.7964 15.0036 52.7091 14.6157C52.6218 14.2277 52.4049 13.8811 52.0943 13.6328C51.7836 13.3846 51.3977 13.2495 51 13.25Z" fill="black"/>
</g>
<defs>
<clipPath id="clip0_138_236">
<rect width="65" height="46" fill="white"/>
</clipPath>
</defs>
</svg>
