<svg width="51" height="50" viewBox="0 0 51 50" fill="none" xmlns="http://www.w3.org/2000/svg">
<path d="M35 28.3333H15V20H35M32.5 38.3333C31.8369 38.3333 31.2011 38.0699 30.7322 37.6011C30.2634 37.1322 30 36.4964 30 35.8333C30 35.1703 30.2634 34.5344 30.7322 34.0655C31.2011 33.5967 31.8369 33.3333 32.5 33.3333C33.163 33.3333 33.7989 33.5967 34.2678 34.0655C34.7366 34.5344 35 35.1703 35 35.8333C35 36.4964 34.7366 37.1322 34.2678 37.6011C33.7989 38.0699 33.163 38.3333 32.5 38.3333ZM17.5 38.3333C16.8369 38.3333 16.2011 38.0699 15.7322 37.6011C15.2634 37.1322 15 36.4964 15 35.8333C15 35.1703 15.2634 34.5344 15.7322 34.0655C16.2011 33.5967 16.8369 33.3333 17.5 33.3333C18.163 33.3333 18.7989 33.5967 19.2678 34.0655C19.7366 34.5344 20 35.1703 20 35.8333C20 36.4964 19.7366 37.1322 19.2678 37.6011C18.7989 38.0699 18.163 38.3333 17.5 38.3333ZM11.6667 36.6666C11.6667 38.1333 12.3167 39.45 13.3333 40.3666V43.3333C13.3333 43.7753 13.5089 44.1993 13.8215 44.5118C14.134 44.8244 14.558 45 15 45H16.6667C17.1087 45 17.5326 44.8244 17.8452 44.5118C18.1577 44.1993 18.3333 43.7753 18.3333 43.3333V41.6666H31.6667V43.3333C31.6667 43.7753 31.8422 44.1993 32.1548 44.5118C32.4674 44.8244 32.8913 45 33.3333 45H35C35.442 45 35.8659 44.8244 36.1785 44.5118C36.4911 44.1993 36.6667 43.7753 36.6667 43.3333V40.3666C37.6833 39.45 38.3333 38.1333 38.3333 36.6666V20C38.3333 14.1666 32.3667 13.3333 25 13.3333C17.6333 13.3333 11.6667 14.1666 11.6667 20V36.6666Z" fill="black"/>
</svg>
