<svg width="50" height="50" viewBox="0 0 50 50" fill="none" xmlns="http://www.w3.org/2000/svg">
<g clip-path="url(#clip0_134_180)">
<path d="M34.6667 28.6667C33.7333 28.6667 32.85 28.85 32.0167 29.1333L27.1 19.5H21.3333V22H25.5667L27.0333 24.8667L23 33.8833L20.05 26.9167C20.5 26.75 20.9 26.3 20.9 25.75C20.9 25.0667 20.35 24.5 19.6667 24.5H16.3333C15.6333 24.5 15.0667 25.0667 15.0667 25.75C15.0667 26.4333 15.6333 27 16.3333 27H17.35L21.1 35.75H19.5333C18.9333 31.75 15.5 28.6667 11.3333 28.6667C6.73333 28.6667 3 32.4 3 37C3 41.6 6.73333 45.3333 11.3333 45.3333C15.5 45.3333 18.9333 42.25 19.5333 38.25H23.8333L28.4833 27.7167L29.8 30.2667C28.7294 31.0335 27.8567 32.0441 27.2539 33.2149C26.6511 34.3857 26.3356 35.6831 26.3333 37C26.3333 41.6 30.0667 45.3333 34.6667 45.3333C39.2667 45.3333 43 41.6 43 37C43 32.4 39.2667 28.6667 34.6667 28.6667ZM11.3333 42.8333C8.11667 42.8333 5.5 40.2167 5.5 37C5.5 33.7833 8.11667 31.1667 11.3333 31.1667C14.1167 31.1667 16.45 33.1333 17.0167 35.75H9.66667V38.25H17.0167C16.7336 39.5473 16.0158 40.709 14.9822 41.5426C13.9486 42.3762 12.6612 42.8316 11.3333 42.8333ZM34.6667 42.8333C31.45 42.8333 28.8333 40.2167 28.8333 37C28.8333 35.2 29.6667 33.6167 30.95 32.55L33.95 38.4167L36.15 37.2167L33.1667 31.3833C33.65 31.2667 34.15 31.1667 34.6667 31.1667C37.8833 31.1667 40.5 33.7833 40.5 37C40.5 40.2167 37.8833 42.8333 34.6667 42.8333Z" fill="black"/>
<path d="M36.75 8.7275V10.5562C34.7113 11.2825 33.25 13.2163 33.25 15.5C33.25 17.0487 33.9325 18.4225 35 19.385V17.25H36.75V22.5H31.5V20.75H33.8888C33.1378 20.097 32.5359 19.2904 32.1238 18.3846C31.7117 17.4788 31.499 16.4951 31.5 15.5C31.5 12.2362 33.7313 9.50625 36.75 8.7275ZM45.5 8.5H40.25V13.75H42V11.615C43.0675 12.5775 43.75 13.9513 43.75 15.5H45.5C45.5 13.4 44.5725 11.5275 43.1113 10.25H45.5V8.5ZM45.5 19.875V19C45.5 18.0375 44.7125 17.25 43.75 17.25C42.7875 17.25 42 18.0375 42 19V19.875C41.5188 19.875 41.125 20.2687 41.125 20.75V23.375C41.125 23.8563 41.5188 24.25 42 24.25H45.5C45.9813 24.25 46.375 23.8563 46.375 23.375V20.75C46.375 20.2687 45.9813 19.875 45.5 19.875ZM44.625 19.875H42.875V19C42.875 18.5187 43.2688 18.125 43.75 18.125C44.2313 18.125 44.625 18.5187 44.625 19V19.875Z" fill="black"/>
</g>
<defs>
<clipPath id="clip0_134_180">
<rect width="50" height="50" fill="white"/>
</clipPath>
</defs>
</svg>
