<svg width="18" height="13" viewBox="0 0 18 13" fill="none" xmlns="http://www.w3.org/2000/svg">
<path d="M18 11V9H0V11C0 11.5304 0.210714 12.0391 0.585786 12.4142C0.960859 12.7893 1.46957 13 2 13H16C16.5304 13 17.0391 12.7893 17.4142 12.4142C17.7893 12.0391 18 11.5304 18 11Z" fill="#EE2024"/>
<path d="M18 9H0V2C0 1.46957 0.210714 0.960859 0.585786 0.585786C0.960859 0.210714 1.46957 0 2 0H16C16.5304 0 17.0391 0.210714 17.4142 0.585786C17.7893 0.960859 18 1.46957 18 2V9Z" fill="#EEEEEE"/>
<path d="M0 4H18V9H0V4Z" fill="#0A4EA2"/>
<path d="M5.91848 10.045C5.35398 9.722 4.09948 8.906 3.64098 7.801C3.17848 6.6875 3.28148 5.0895 3.40048 3.239L3.43048 2.771H9.41198L9.44248 3.239C9.56148 5.089 9.66448 6.6865 9.20198 7.8005C8.74298 8.906 7.48898 9.7225 6.92398 10.045L6.42198 10.331L5.91848 10.045Z" fill="white"/>
<path d="M8.94297 3.271H3.89897C3.77997 5.1245 3.68797 6.611 4.10247 7.609C4.61297 8.839 6.36047 9.719 6.41797 9.747V9.75L6.42047 9.7485L6.42297 9.75V9.747C6.48047 9.7185 8.22797 8.839 8.73897 7.609C9.15397 6.611 9.06247 5.124 8.94297 3.271Z" fill="#EE2024"/>
<path d="M7.93249 5.5545C7.93249 5.5545 7.23199 5.621 6.61649 5.637C6.60638 5.42278 6.60688 5.20818 6.61799 4.994C7.10449 5.024 7.44049 5.117 7.44049 5.117C7.56398 5.117 7.66399 5.017 7.66399 4.8935V4.5905C7.66399 4.467 7.56398 4.367 7.44049 4.367C7.44049 4.367 7.07099 4.43 6.65649 4.4565C6.69199 4.0655 6.73449 3.739 6.73449 3.739C6.73449 3.6155 6.63449 3.5155 6.51099 3.5155H6.20849C6.08499 3.5155 5.98499 3.6155 5.98499 3.739C5.98499 3.739 6.03099 4.072 6.06999 4.4605C5.80449 4.44556 5.54016 4.41433 5.27849 4.367C5.15499 4.367 5.05499 4.467 5.05499 4.5905V4.8935C5.05499 5.017 5.15499 5.117 5.27849 5.117C5.27849 5.117 5.59799 5.014 6.11349 4.9895C6.12049 5.1045 6.12549 5.216 6.12549 5.3125C6.12549 5.393 6.12249 5.5065 6.11749 5.637C5.49649 5.6205 4.77099 5.555 4.77099 5.555C4.64749 5.555 4.54749 5.655 4.54749 5.7785V6.0815C4.54749 6.205 4.64749 6.305 4.77099 6.305C4.77099 6.305 5.43049 6.251 6.08849 6.241C6.04699 7.0065 5.98499 7.902 5.98499 7.902C5.98499 8.0255 6.08499 8.1255 6.20849 8.1255H6.51099C6.63449 8.1255 6.73449 8.0255 6.73449 7.902C6.73449 7.902 6.67899 7.0155 6.64199 6.2435C7.27799 6.2585 7.93249 6.305 7.93249 6.305C8.05599 6.305 8.15599 6.205 8.15599 6.0815V5.7785C8.15599 5.655 8.05599 5.5545 7.93249 5.5545Z" fill="white"/>
<path d="M8.53947 7.98247C8.28547 7.43947 7.58697 7.28597 7.25547 7.94947C7.03647 7.15247 6.41497 7.15247 6.41497 7.15247C6.41497 7.15247 5.79297 7.15247 5.57447 7.94947C5.24547 7.29147 4.55447 7.43747 4.29547 7.96997C4.95247 9.00697 6.36697 9.72197 6.41897 9.74747V9.74997L6.42147 9.74847L6.42397 9.74997V9.74697C6.47547 9.72147 7.87897 9.01247 8.53947 7.98247Z" fill="#0A4EA2"/>
</svg>
